<?xml version="1.0" encoding="iso-8859-1"?>
<!-- Uploaded to: SVG Repo, www.svgrepo.com, Generator: SVG Repo Mixer Tools -->
<svg fill="#000000" version="1.1" id="Layer_1" xmlns="http://www.w3.org/2000/svg" xmlns:xlink="http://www.w3.org/1999/xlink" 
	 viewBox="0 0 512 512" xml:space="preserve">
<g>
	<g>
		<path d="M512,265.143v-18.286h-54.857c-5.056,0-9.143,4.096-9.143,9.143v36.571c-45.376,0-82.286,36.919-82.286,82.286v82.286
			H118.857c-5.047,0-9.143-4.105-9.143-9.143c0-5.038,4.096-9.143,9.143-9.143H256c25.207,0,45.714-20.507,45.714-45.714V228.571
			h9.143c5.056,0,9.143-4.096,9.143-9.143v-16.722c27.566-15.79,45.714-54.016,45.714-97.563C365.714,47.168,332.901,0,292.571,0
			c-40.329,0-73.143,47.168-73.143,105.143c0,43.547,18.149,81.783,45.714,97.563v16.722c0,5.047,4.087,9.143,9.143,9.143h9.143
			v164.571c0,15.122-12.306,27.429-27.429,27.429H118.857c-15.122,0-27.429,12.306-27.429,27.429
			c0,15.122,12.306,27.429,27.429,27.429h246.857c10.085,0,18.286-8.201,18.286-18.286v-82.286c0-35.291,28.718-64,64-64v18.286
			c-25.207,0-45.714,20.507-45.714,45.714v91.429c0,15.122-12.306,27.429-27.429,27.429H100.571
			c-15.122,0-27.429-12.306-27.429-27.429V256h73.143c15.122,0,27.429-12.306,27.429-27.429V192
			c0-15.122-12.306-27.429-27.429-27.429h-0.238c22.29-16.686,36.809-43.218,36.809-73.143C182.857,41.015,141.842,0,91.429,0
			C41.015,0,0,41.015,0,91.429c0,29.925,14.519,56.457,36.809,73.143h-0.238c-15.122,0-27.429,12.306-27.429,27.429v36.571
			C9.143,243.694,21.449,256,36.571,256h18.286v210.286c0,25.207,20.507,45.714,45.714,45.714h274.286
			c25.207,0,45.714-20.507,45.714-45.714v-91.429c0-15.122,12.306-27.429,27.429-27.429v128c0,5.047,4.087,9.143,9.143,9.143H512
			v-18.286h-45.714V265.143H512z M278.016,188.763c-23.735-10.597-40.302-44.983-40.302-83.621
			c0-47.077,25.125-86.857,54.857-86.857c29.733,0,54.857,39.781,54.857,86.857c0,38.638-16.567,73.024-40.302,83.621
			c-3.301,1.481-5.413,4.745-5.413,8.357v13.166h-18.286V197.12C283.429,193.509,281.317,190.245,278.016,188.763z M18.286,91.429
			c0-40.329,32.814-73.143,73.143-73.143c40.329,0,73.143,32.814,73.143,73.143s-32.814,73.143-73.143,73.143
			S18.286,131.758,18.286,91.429z M36.571,237.714c-5.047,0-9.143-4.105-9.143-9.143V192c0-5.038,4.096-9.143,9.143-9.143h109.714
			c5.047,0,9.143,4.105,9.143,9.143v36.571c0,5.038-4.096,9.143-9.143,9.143H36.571z"/>
	</g>
</g>
<g>
	<g>
		<rect x="82.286" y="36.571" width="18.286" height="18.286"/>
	</g>
</g>
<g>
	<g>
		<rect x="118.857" y="54.857" width="18.286" height="18.286"/>
	</g>
</g>
<g>
	<g>
		<rect x="45.714" y="54.857" width="18.286" height="18.286"/>
	</g>
</g>
<g>
	<g>
		<rect x="45.714" y="201.143" width="18.286" height="18.286"/>
	</g>
</g>
<g>
	<g>
		<rect x="82.286" y="201.143" width="18.286" height="18.286"/>
	</g>
</g>
<g>
	<g>
		<rect x="118.857" y="201.143" width="18.286" height="18.286"/>
	</g>
</g>
<g>
	<g>
		<path d="M100.571,112.256V73.143H82.286v39.113c-5.44,3.173-9.143,9.006-9.143,15.744c0,10.085,8.201,18.286,18.286,18.286
			c10.085,0,18.286-8.201,18.286-18.286C109.714,121.262,106.011,115.429,100.571,112.256z"/>
	</g>
</g>
</svg>