<!DOCTYPE svg PUBLIC "-//W3C//DTD SVG 1.1//EN" "http://www.w3.org/Graphics/SVG/1.1/DTD/svg11.dtd">
<!-- Uploaded to: SVG Repo, www.svgrepo.com, Transformed by: SVG Repo Mixer Tools -->
<svg fill="#00c0ff" version="1.1" id="Layer_1" xmlns="http://www.w3.org/2000/svg" xmlns:xlink="http://www.w3.org/1999/xlink" viewBox="0 0 512 512" xml:space="preserve" width="800px" height="800px" stroke="#00c0ff">
<g id="SVGRepo_bgCarrier" stroke-width="0"/>
<g id="SVGRepo_tracerCarrier" stroke-linecap="round" stroke-linejoin="round"/>
<g id="SVGRepo_iconCarrier"> <g> <g> <rect width="17.655" height="17.655"/> </g> </g> <g> <g> <rect y="35.31" width="17.655" height="17.655"/> </g> </g> <g> <g> <rect y="70.621" width="17.655" height="17.655"/> </g> </g> <g> <g> <rect y="105.931" width="17.655" height="17.655"/> </g> </g> <g> <g> <rect y="141.241" width="17.655" height="17.655"/> </g> </g> <g> <g> <rect y="176.552" width="17.655" height="17.655"/> </g> </g> <g> <g> <rect y="211.862" width="17.655" height="17.655"/> </g> </g> <g> <g> <rect y="282.483" width="17.655" height="17.655"/> </g> </g> <g> <g> <rect y="317.793" width="17.655" height="17.655"/> </g> </g> <g> <g> <rect y="353.103" width="17.655" height="17.655"/> </g> </g> <g> <g> <rect y="388.414" width="17.655" height="17.655"/> </g> </g> <g> <g> <rect y="423.724" width="17.655" height="17.655"/> </g> </g> <g> <g> <rect y="459.034" width="17.655" height="17.655"/> </g> </g> <g> <g> <rect y="494.345" width="17.655" height="17.655"/> </g> </g> <g> <g> <rect x="123.586" width="17.655" height="17.655"/> </g> </g> <g> <g> <rect x="123.586" y="35.31" width="17.655" height="17.655"/> </g> </g> <g> <g> <rect x="123.586" y="70.621" width="17.655" height="17.655"/> </g> </g> <g> <g> <rect x="123.586" y="317.793" width="17.655" height="17.655"/> </g> </g> <g> <g> <rect x="123.586" y="353.103" width="17.655" height="17.655"/> </g> </g> <g> <g> <rect x="123.586" y="388.414" width="17.655" height="17.655"/> </g> </g> <g> <g> <rect x="123.586" y="423.724" width="17.655" height="17.655"/> </g> </g> <g> <g> <rect x="123.586" y="459.034" width="17.655" height="17.655"/> </g> </g> <g> <g> <rect x="123.586" y="494.345" width="17.655" height="17.655"/> </g> </g> <g> <g> <rect x="247.172" width="17.655" height="17.655"/> </g> </g> <g> <g> <rect x="247.172" y="35.31" width="17.655" height="17.655"/> </g> </g> <g> <g> <rect x="247.172" y="70.621" width="17.655" height="17.655"/> </g> </g> <g> <g> <rect x="247.172" y="105.931" width="17.655" height="17.655"/> </g> </g> <g> <g> <rect x="247.172" y="141.241" width="17.655" height="17.655"/> </g> </g> <g> <g> <rect x="247.172" y="176.552" width="17.655" height="17.655"/> </g> </g> <g> <g> <rect x="247.172" y="282.483" width="17.655" height="17.655"/> </g> </g> <g> <g> <rect x="247.172" y="317.793" width="17.655" height="17.655"/> </g> </g> <g> <g> <rect x="247.172" y="353.103" width="17.655" height="17.655"/> </g> </g> <g> <g> <rect x="247.172" y="388.414" width="17.655" height="17.655"/> </g> </g> <g> <g> <rect x="247.172" y="423.724" width="17.655" height="17.655"/> </g> </g> <g> <g> <rect x="247.172" y="459.034" width="17.655" height="17.655"/> </g> </g> <g> <g> <rect x="247.172" y="494.345" width="17.655" height="17.655"/> </g> </g> <g> <g> <rect x="370.759" width="17.655" height="17.655"/> </g> </g> <g> <g> <rect x="370.759" y="35.31" width="17.655" height="17.655"/> </g> </g> <g> <g> <rect x="370.759" y="70.621" width="17.655" height="17.655"/> </g> </g> <g> <g> <rect x="370.759" y="282.483" width="17.655" height="17.655"/> </g> </g> <g> <g> <rect x="370.759" y="317.793" width="17.655" height="17.655"/> </g> </g> <g> <g> <rect x="370.759" y="353.103" width="17.655" height="17.655"/> </g> </g> <g> <g> <rect x="370.759" y="388.414" width="17.655" height="17.655"/> </g> </g> <g> <g> <rect x="370.759" y="423.724" width="17.655" height="17.655"/> </g> </g> <g> <g> <rect x="370.759" y="459.034" width="17.655" height="17.655"/> </g> </g> <g> <g> <rect x="370.759" y="494.345" width="17.655" height="17.655"/> </g> </g> <g> <g> <rect x="494.345" width="17.655" height="17.655"/> </g> </g> <g> <g> <rect x="494.345" y="35.31" width="17.655" height="17.655"/> </g> </g> <g> <g> <rect x="494.345" y="70.621" width="17.655" height="17.655"/> </g> </g> <g> <g> <rect x="494.345" y="105.931" width="17.655" height="17.655"/> </g> </g> <g> <g> <rect x="494.345" y="141.241" width="17.655" height="17.655"/> </g> </g> <g> <g> <rect x="494.345" y="176.552" width="17.655" height="17.655"/> </g> </g> <g> <g> <rect x="494.345" y="211.862" width="17.655" height="17.655"/> </g> </g> <g> <g> <path d="M503.172,247.172h-8.828h-93.449l-8.828-8.828l53.398-53.38c8.748-8.739,13.568-20.365,13.568-32.733 s-4.82-23.993-13.568-32.742c-18.061-18.044-47.439-18.061-65.501,0l-0.38,0.38l-0.38-0.38c-18.052-18.044-47.439-18.061-65.501,0 c-8.748,8.748-13.568,20.374-13.568,32.742c0,12.367,4.82,23.993,13.568,32.733l53.398,53.38l-8.828,8.828h-86.131 c-3.646-10.275-13.462-17.655-24.973-17.655c-11.511,0-21.327,7.38-24.973,17.655h-19.165c-4.317,0-7.998,3.125-8.704,7.38 l-8.28,49.655l-27.242-190.702c-0.618-4.317-4.299-7.539-8.669-7.574c-4.67-0.185-8.104,3.134-8.783,7.451l-21.389,135.486 c-1.483-1.077-3.293-1.695-5.208-1.695H86.766c-3.646-10.275-13.462-17.655-24.973-17.655s-21.327,7.38-24.973,17.655H17.655 H8.828H0v17.655h8.828h8.828h26.483c4.873,0,8.828-3.946,8.828-8.828c0-4.873,3.964-8.828,8.828-8.828s8.828,3.955,8.828,8.828 c0,4.882,3.955,8.828,8.828,8.828h28.946l6.815,20.445c1.289,3.867,5.023,6.285,9.101,6.012c4.052-0.335,7.353-3.407,7.989-7.424 l17.329-109.745l27.012,189.06c0.609,4.308,4.281,7.53,8.633,7.574c0.035,0,0.071,0,0.106,0c4.308,0,7.998-3.116,8.704-7.38 l16.428-98.542h19.006c4.873,0,8.828-3.946,8.828-8.828c0-4.873,3.964-8.828,8.828-8.828S256,251.127,256,256 c0,4.882,3.955,8.828,8.828,8.828h97.103c2.339,0,4.59-0.927,6.241-2.586l11.414-11.414L391,262.241 c1.651,1.66,3.902,2.586,6.241,2.586h97.103h8.828H512v-17.655H503.172z M382.173,223.276l-2.586,2.586L377,223.276 l-50.812-50.794c-5.42-5.411-8.395-12.606-8.395-20.25c0-7.654,2.984-14.848,8.395-20.259c5.588-5.579,12.924-8.369,20.268-8.369 s14.68,2.789,20.259,8.369l6.621,6.63c3.31,3.31,9.181,3.31,12.491,0l6.621-6.63c11.176-11.158,29.361-11.158,40.536,0 c5.42,5.411,8.395,12.615,8.395,20.259c0,7.645-2.975,14.839-8.395,20.25L382.173,223.276z"/> </g> </g> <g> <g> <rect x="494.345" y="282.483" width="17.655" height="17.655"/> </g> </g> <g> <g> <rect x="494.345" y="317.793" width="17.655" height="17.655"/> </g> </g> <g> <g> <rect x="494.345" y="353.103" width="17.655" height="17.655"/> </g> </g> <g> <g> <rect x="494.345" y="388.414" width="17.655" height="17.655"/> </g> </g> <g> <g> <rect x="494.345" y="423.724" width="17.655" height="17.655"/> </g> </g> <g> <g> <rect x="494.345" y="459.034" width="17.655" height="17.655"/> </g> </g> <g> <g> <rect x="494.345" y="494.345" width="17.655" height="17.655"/> </g> </g> <g> <g> <rect x="44.138" y="70.621" width="17.655" height="17.655"/> </g> </g> <g> <g> <rect x="79.448" y="70.621" width="17.655" height="17.655"/> </g> </g> <g> <g> <rect x="167.724" y="70.621" width="17.655" height="17.655"/> </g> </g> <g> <g> <rect x="203.034" y="70.621" width="17.655" height="17.655"/> </g> </g> <g> <g> <rect x="291.31" y="70.621" width="17.655" height="17.655"/> </g> </g> <g> <g> <rect x="326.621" y="70.621" width="17.655" height="17.655"/> </g> </g> <g> <g> <rect x="414.897" y="70.621" width="17.655" height="17.655"/> </g> </g> <g> <g> <rect x="450.207" y="70.621" width="17.655" height="17.655"/> </g> </g> <g> <g> <rect x="44.138" y="423.724" width="17.655" height="17.655"/> </g> </g> <g> <g> <rect x="79.448" y="423.724" width="17.655" height="17.655"/> </g> </g> <g> <g> <rect x="167.724" y="423.724" width="17.655" height="17.655"/> </g> </g> <g> <g> <rect x="203.034" y="423.724" width="17.655" height="17.655"/> </g> </g> <g> <g> <rect x="291.31" y="423.724" width="17.655" height="17.655"/> </g> </g> <g> <g> <rect x="326.621" y="423.724" width="17.655" height="17.655"/> </g> </g> <g> <g> <rect x="414.897" y="423.724" width="17.655" height="17.655"/> </g> </g> <g> <g> <rect x="450.207" y="423.724" width="17.655" height="17.655"/> </g> </g> </g>
</svg>