<?xml version="1.0" encoding="iso-8859-1"?>
<!-- Uploaded to: SVG Repo, www.svgrepo.com, Generator: SVG Repo Mixer Tools -->
<svg fill="#000000" height="800px" width="800px" version="1.1" id="Layer_1" xmlns="http://www.w3.org/2000/svg" xmlns:xlink="http://www.w3.org/1999/xlink" 
	 viewBox="0 0 469.333 469.333" xml:space="preserve">
<g>
	<g>
		<path d="M188.843,102.464c-8.917-8.917-20.768-13.824-33.376-13.824c-10.912,0-21.259,3.68-29.621,10.443
			c-8.363-6.763-18.699-10.443-29.611-10.443c-12.608,0-24.459,4.907-33.376,13.824c-8.917,8.907-13.824,20.768-13.824,33.365
			c0,12.608,4.907,24.459,13.824,33.376l51.669,51.669c1.995,2.005,4.715,3.125,7.541,3.125h7.563c2.827,0,5.547-1.12,7.541-3.125
			l51.669-51.669C207.243,150.805,207.243,120.864,188.843,102.464z M173.76,154.123l-47.904,47.904l-47.915-47.904
			c-10.08-10.08-10.08-26.496,0-36.576c4.885-4.885,11.381-7.573,18.293-7.573c6.912,0,13.408,2.688,18.293,7.573l3.776,3.776
			c4.171,4.171,10.912,4.16,15.083,0l3.787-3.787c9.771-9.771,26.795-9.781,36.587,0C183.84,127.627,183.84,144.043,173.76,154.123z
			"/>
	</g>
</g>
<g>
	<g>
		<path d="M437.333,0H32C14.357,0,0,14.357,0,32v245.333V320c0,17.643,14.357,32,32,32h138.848L142.4,416h-9.067
			c-14.699,0-26.667,11.968-26.667,26.667c0,14.699,11.968,26.667,26.667,26.667H336c14.699,0,26.667-11.968,26.667-26.667
			C362.667,427.968,350.699,416,336,416h-9.067l-28.448-64h138.848c17.643,0,32-14.357,32-32v-42.667V32
			C469.333,14.357,454.976,0,437.333,0z M336,437.333c2.944,0,5.333,2.389,5.333,5.333c0,2.944-2.389,5.333-5.333,5.333H133.333
			c-2.944,0-5.333-2.389-5.333-5.333c0-2.944,2.389-5.333,5.333-5.333H336z M303.584,416h-59.445h-78.4l28.448-64h80.949
			L303.584,416z M448,320c0,5.877-4.789,10.667-10.667,10.667H289.003H180.331H32c-5.877,0-10.667-4.789-10.667-10.667v-32H448V320z
			 M448,266.667H21.333V32c0-5.877,4.789-10.667,10.667-10.667h405.333C443.211,21.333,448,26.123,448,32V266.667z"/>
	</g>
</g>
<g>
	<g>
		<circle cx="234.667" cy="384" r="10.667"/>
	</g>
</g>
<g>
	<g>
		<path d="M426.667,149.333h-32c-3.563,0-6.891,1.781-8.875,4.747l-8.533,12.811L362.261,114.4
			c-1.323-4.64-5.333-7.669-10.432-7.733c-4.832,0.085-9.003,3.392-10.176,8.075l-8.651,34.592h-23.669c0,0-0.011,0-0.021,0
			c0,0-0.011,0-0.021,0c-2.656,0.011-5.088,0.992-6.944,2.603c-0.363,0.32-0.715,0.661-1.035,1.035
			c-0.341,0.395-0.651,0.8-0.928,1.237l-8.448,12.672l-14.997-52.491c-1.323-4.64-5.323-7.669-10.432-7.733
			c-4.832,0.085-9.003,3.392-10.176,8.075l-8.661,34.603H224c-5.888,0-10.667,4.779-10.667,10.667s4.779,10.667,10.667,10.667h32
			c4.896,0,9.163-3.328,10.347-8.075l1.003-4.021l10.389,36.373c1.141,4,4.501,6.965,8.608,7.605
			c4.139,0.672,8.224-1.163,10.517-4.619l18.176-27.264h26.293c0.011,0,0.011,0,0.021,0c0,0,0.011,0,0.021,0
			c2.72-0.011,5.195-1.045,7.072-2.731c0.619-0.544,1.163-1.173,1.632-1.856c0.768-1.109,1.333-2.357,1.632-3.712l0.949-3.808
			l10.389,36.373c1.141,4,4.501,6.965,8.608,7.605c0.576,0.085,1.131,0.128,1.675,0.128c3.531,0,6.88-1.76,8.875-4.747
			l18.165-27.253h26.293c5.888,0,10.667-4.779,10.667-10.667S432.555,149.333,426.667,149.333z"/>
	</g>
</g>
</svg>