<?xml version="1.0" encoding="iso-8859-1"?>
<!-- Uploaded to: SVG Repo, www.svgrepo.com, Generator: SVG Repo Mixer Tools -->
<svg fill="#000000" version="1.1" id="Layer_1" xmlns="http://www.w3.org/2000/svg" xmlns:xlink="http://www.w3.org/1999/xlink" 
	 viewBox="0 0 512 512" xml:space="preserve">
<g>
	<g>
		<path d="M475.429,470.857c2.423,0,4.754-0.96,6.464-2.679l27.429-27.429c3.383-3.374,3.584-8.786,0.475-12.407L455.314,364.8
			l-22.629-30.162l23.634-51.995c0.713-1.563,0.969-3.291,0.741-4.992l-0.622-4.69c0.101-0.256,0.274-0.466,0.357-0.741l18.286-64
			c0.914-3.191,0.018-6.629-2.322-8.969l-36.571-36.571c-0.53-0.53-1.189-0.823-1.801-1.198
			c-10.075-19.922-25.344-36.91-44.517-49.051c7.753-9.463,12.416-21.55,12.416-34.715c0-30.254-24.603-54.857-54.857-54.857
			s-54.857,24.603-54.857,54.857c0,23.835,15.296,44.105,36.571,51.657v12.343h-36.571c-25.207,0-45.714,20.507-45.714,45.714
			v45.714v9.143v9.143c0,13.669-10.085,24.942-23.186,26.999l-22.528-30.043v-106.67c0-5.056-4.096-9.143-9.143-9.143H64H45.714
			H9.143c-5.047,0-9.143,4.087-9.143,9.143v301.714c0,25.207,20.507,45.714,45.714,45.714h54.857h18.286h109.714h18.286h100.571
			h48.805H512v-18.286H475.429z M441.061,376.229l49.344,57.573l-14.583,14.592l-62.757-70.592l10.999-24.201L441.061,376.229z
			 M456.018,208.375l-5.586,19.547l-3.547-26.624c-0.119-0.869-0.375-1.701-0.503-2.569L456.018,208.375z M310.857,77.714
			c0-20.169,16.402-36.571,36.571-36.571S384,57.545,384,77.714s-16.402,36.571-36.571,36.571S310.857,97.883,310.857,77.714z
			 M265.143,187.429c0-15.122,12.306-27.429,27.429-27.429h39.122l9.143,27.429h-48.265c-10.331,0-19.767,3.575-27.429,9.381
			V187.429z M73.143,150.857h109.714v36.571h-27.429c-3.941,0-7.424,2.514-8.677,6.254l-0.466,1.408l-9.609-28.837
			c-1.216-3.63-4.571-6.135-8.402-6.254c-3.822,0.064-7.333,2.185-8.759,5.751l-10.725,26.807l-0.037-0.073
			c-1.554-3.099-4.718-5.056-8.183-5.056H73.143V150.857z M73.143,205.714h21.778l6.619,13.23c1.609,3.218,4.937,5.266,8.558,5.047
			c3.602-0.155,6.775-2.395,8.11-5.742l9.015-22.537l10.395,31.177c1.243,3.739,4.727,6.254,8.667,6.254
			c3.941,0,7.424-2.514,8.677-6.254l7.058-21.175h20.837v36.571H73.143V205.714z M109.714,470.857h-9.143H45.714
			c-15.122,0-27.429-12.306-27.429-27.429V150.857h27.429h9.143v100.571c0,1.984,0.64,3.904,1.829,5.486l53.029,70.702V470.857z
			 M82.286,260.571h105.143l13.714,18.286h-27.429v18.286h41.143l13.714,18.286H123.429L82.286,260.571z M237.714,470.857h-9.143
			H128V333.714h109.714V470.857z M347.465,369.518l-8.448,101.339H256V324.571c0-1.984-0.64-3.904-1.829-5.486l-18.743-24.987
			c17.307-6.519,29.714-23.113,29.714-42.67v-9.143v-9.143c0-15.122,12.306-27.429,27.429-27.429h40.786l-44.398,19.026
			c-2.313,0.987-4.114,2.889-4.983,5.257c-0.869,2.368-0.722,4.983,0.402,7.232l18.286,36.571c1.618,3.209,4.846,5.056,8.201,5.056
			c1.371,0,2.77-0.311,4.078-0.96l32.485-16.247v35.493c0,0.75,0.091,1.49,0.274,2.213l9.143,36.571l1.682-0.421l-10.624,31.881
			C347.675,368.082,347.529,368.795,347.465,369.518z M393.966,375.643c-0.466,1.015-0.741,2.112-0.805,3.237l-5.541,91.977h-30.254
			l8.229-98.725l27.081-81.243l-17.344-5.787l-7.049,21.157l-2.569-10.24v-43.511l40.658-20.334
			c3.465-1.728,5.467-5.467,4.983-9.317l-9.143-73.143l-18.139,2.267l8.338,66.725l-77.467,38.729l-9.865-19.721l55.086-23.607
			c4.37-1.874,6.574-6.784,5.074-11.291l-17.81-53.44v-16.805c10.112,0,19.557-2.798,27.694-7.589
			c29.202,16.366,49.179,45.339,53.632,78.729l9.829,73.746L393.966,375.643z M405.943,470.857l4.142-68.891l58.505,65.819
			c1.673,1.883,4.05,2.99,6.565,3.072H405.943z"/>
	</g>
</g>
<g>
	<g>
		<rect x="137.143" y="278.857" width="18.286" height="18.286"/>
	</g>
</g>
<g>
	<g>
		<rect x="155.429" y="96" width="18.286" height="18.286"/>
	</g>
</g>
<g>
	<g>
		<rect x="118.857" y="96" width="18.286" height="18.286"/>
	</g>
</g>
<g>
	<g>
		<rect x="82.286" y="96" width="18.286" height="18.286"/>
	</g>
</g>
</svg>